# xmcd CD database file
#
# Track frame offsets:
#	183
#	21008
#	47683
#	63920
#	88745
#	106745
#	130208
#	153245
#	176195
#	191120
#
# Disc length: 2785 seconds
#
# Revision: 0
# Processed by: cddbd v1.5.1PL0 Copyright (c) Steve Scherf et al.
# Submitted via: CDex 1.51
#
DISCID=7f0adf0a
DTITLE=Hunt, Lisa - A Little Piece of Magic
DYEAR=1989
DGENRE=Blues
TTITLE0=Free Man
TTITLE1=My Broken Heart
TTITLE2=A Little Piece Of Magic
TTITLE3=Fires In The Rain
TTITLE4=Don't You Want Me Now
TTITLE5=Lady Marmalade
TTITLE6=A Place Called Home
TTITLE7=Remember Me
TTITLE8=Band Of Gold
TTITLE9=In My Secret Heart
EXTD=YEAR: 1989
EXTT0=
EXTT1=
EXTT2=
EXTT3=
EXTT4=
EXTT5=
EXTT6=
EXTT7=
EXTT8=
EXTT9=
PLAYORDER=
